HIERARCHY
ROOT Hips
{
	OFFSET 0.000000 0.000000 0.000000
	CHANNELS 6 Xposition Yposition Zposition Zrotation Yrotation Xrotation 
	JOINT LHipJoint
	{
		OFFSET 0.000000 0.000000 0.000000
		CHANNELS 3 Zrotation Yrotation Xrotation
		JOINT LeftUpLeg
		{
			OFFSET 1.363060 -1.794630 0.839290
			CHANNELS 3 Zrotation Yrotation Xrotation
			JOINT LeftLeg
			{
				OFFSET 2.448110 -6.726130 0.000000
				CHANNELS 3 Zrotation Yrotation Xrotation
				JOINT LeftFoot
				{
					OFFSET 2.562200 -7.039590 0.000000
					CHANNELS 3 Zrotation Yrotation Xrotation
					JOINT LeftToeBase
					{
						OFFSET 0.157640 -0.433110 2.322550
						CHANNELS 3 Zrotation Yrotation Xrotation
						End Site
						{
							OFFSET 0.000000 0.000000 0.000000
						}
					}
				}
			}
		}
	}
	JOINT RHipJoint
	{
		OFFSET 0.000000 0.000000 0.000000
		CHANNELS 3 Zrotation Yrotation Xrotation
		JOINT RightUpLeg
		{
			OFFSET -1.305520 -1.794630 0.839290
			CHANNELS 3 Zrotation Yrotation Xrotation
			JOINT RightLeg
			{
				OFFSET -2.542530 -6.985550 0.000000
				CHANNELS 3 Zrotation Yrotation Xrotation
				JOINT RightFoot
				{
					OFFSET -2.568260 -7.056230 0.000000
					CHANNELS 3 Zrotation Yrotation Xrotation
					JOINT RightToeBase
					{
						OFFSET -0.164730 -0.452590 2.363150
						CHANNELS 3 Zrotation Yrotation Xrotation
						End Site
						{
							OFFSET 0.000000 0.000000 0.000000
						}
					}
				}
			}
		}
	}
	JOINT LowerBack
	{
		OFFSET 0.000000 0.000000 0.000000
		CHANNELS 3 Zrotation Yrotation Xrotation
		JOINT Spine
		{
			OFFSET 0.028270 2.035590 -0.193380
			CHANNELS 3 Zrotation Yrotation Xrotation
			JOINT Spine1
			{
				OFFSET 0.056720 2.048850 -0.042750
				CHANNELS 3 Zrotation Yrotation Xrotation
				JOINT Neck
				{
					OFFSET 0.000000 0.000000 0.000000
					CHANNELS 3 Zrotation Yrotation Xrotation
					JOINT Neck1
					{
						OFFSET -0.054170 1.746240 0.172020
						CHANNELS 3 Zrotation Yrotation Xrotation
						JOINT Head
						{
							OFFSET 0.104070 1.761360 -0.123970
							CHANNELS 3 Zrotation Yrotation Xrotation
							End Site
							{
								OFFSET 0.000000 0.000000 0.000000
							}
						}
					}
				}
				JOINT LeftShoulder
				{
					OFFSET 0.000000 0.000000 0.000000
					CHANNELS 3 Zrotation Yrotation Xrotation
					JOINT LeftArm
					{
						OFFSET 3.362410 1.200890 -0.311210
						CHANNELS 3 Zrotation Yrotation Xrotation
						JOINT LeftForeArm
						{
							OFFSET 4.983000 -0.000000 -0.000000
							CHANNELS 3 Zrotation Yrotation Xrotation
							JOINT LeftHand
							{
								OFFSET 3.483560 -0.000000 -0.000000
								CHANNELS 3 Zrotation Yrotation Xrotation
								JOINT LeftFingerBase
								{
									OFFSET 0.000000 0.000000 0.000000
									CHANNELS 3 Zrotation Yrotation Xrotation
									JOINT LeftHandIndex1
									{
										OFFSET 0.715260 -0.000000 -0.000000
										CHANNELS 3 Zrotation Yrotation Xrotation
										End Site
										{
											OFFSET 0.000000 0.000000 0.000000
										}
									}
								}
								JOINT LThumb
								{
									OFFSET 0.000000 0.000000 0.000000
									CHANNELS 3 Zrotation Yrotation Xrotation
									End Site
									{
										OFFSET 0.000000 0.000000 0.000000
									}
								}
							}
						}
					}
				}
				JOINT RightShoulder
				{
					OFFSET 0.000000 0.000000 0.000000
					CHANNELS 3 Zrotation Yrotation Xrotation
					JOINT RightArm
					{
						OFFSET -3.136600 1.374050 -0.404650
						CHANNELS 3 Zrotation Yrotation Xrotation
						JOINT RightForeArm
						{
							OFFSET -5.241900 -0.000000 -0.000000
							CHANNELS 3 Zrotation Yrotation Xrotation
							JOINT RightHand
							{
								OFFSET -3.444170 -0.000000 -0.000000
								CHANNELS 3 Zrotation Yrotation Xrotation
								JOINT RightFingerBase
								{
									OFFSET 0.000000 0.000000 0.000000
									CHANNELS 3 Zrotation Yrotation Xrotation
									JOINT RightHandIndex1
									{
										OFFSET -0.622530 -0.000000 -0.000000
										CHANNELS 3 Zrotation Yrotation Xrotation
										End Site
										{
											OFFSET 0.000000 0.000000 0.000000
										}
									}
								}
								JOINT RThumb
								{
									OFFSET 0.000000 0.000000 0.000000
									CHANNELS 3 Zrotation Yrotation Xrotation
									End Site
									{
										OFFSET 0.000000 0.000000 0.000000
									}
								}
							}
						}
					}
				}
			}
		}
	}
}
MOTION
Frames: 12
Frame Time: 0.008333
1.653970 16.661451 -10.077004 -2.982401 1.060571 2.157407 -4.783353 -2.753156 -0.393802 -14.784545 -0.344956 -28.710442 7.359143 16.504023 52.352557 -0.726182 5.865597 -11.460309 0.324300 -3.660400 -10.123000 3.238003 2.559261 -1.257743 12.978758 2.015981 -39.942446 -15.374105 -19.371697 75.742909 3.472180 -15.823302 -10.158734 -0.175200 2.696000 -7.433500 -0.639706 0.547039 23.363605 2.206337 0.999289 0.484024 2.355522 0.639861 -9.501443 3.282673 1.255229 -17.966391 2.526242 0.473093 8.565426 -2.445900 0.361100 7.999500 3.385709 -1.268820 0.195208 -84.134540 -0.394164 20.072851 28.616875 -39.364662 -9.842662 0.405057 0.186724 -9.866420 22.958603 -12.965791 -5.383800 -7.125000 0.000000 0.000000 -3.304200 15.819800 2.282200 -2.568050 1.566219 0.206191 83.332429 -5.214051 28.853202 -41.071806 48.423083 -18.204182 0.290762 -0.608123 -7.260548 -17.852018 -3.355693 0.873500 7.125000 0.000000 0.000000 6.908700 -32.743400 2.087200 
1.645388 16.673825 -9.946076 -2.816908 1.552129 2.390225 -4.797239 -2.748063 -0.351869 -14.950349 -0.238238 -28.506323 7.316115 16.476493 52.224449 -0.647237 5.609882 -11.534886 0.345200 -3.775500 -10.445800 3.221915 2.573460 -1.320598 12.468918 2.330589 -40.779489 -14.792911 -19.221853 73.982189 3.480807 -15.819177 -10.217688 -0.174100 2.688000 -7.411200 -0.710913 0.384587 23.414666 2.174568 0.766034 0.464136 2.419274 0.533570 -9.531915 3.286826 1.258323 -17.919935 2.525966 0.470916 8.498285 -2.447600 0.356700 7.967600 3.381725 -1.267951 0.192180 -84.027794 -1.099921 20.823331 28.863518 -39.596779 -9.995287 0.403692 0.185574 -9.793852 23.015819 -12.992786 -5.410100 -7.125000 0.000000 0.000000 -3.265000 15.785000 2.257400 -2.568122 1.557575 0.205718 83.421821 -5.195465 28.579886 -41.407961 48.616711 -18.452116 0.295963 -0.607375 -7.449378 -17.868949 -3.610893 0.957400 7.125000 0.000000 0.000000 6.916600 -33.009300 2.044900 
1.637105 16.686798 -9.815846 -2.680289 2.102220 2.631180 -4.816012 -2.741313 -0.315738 -15.084990 -0.306018 -28.251230 7.269600 16.447138 52.085329 -0.623156 5.543780 -11.606888 0.367100 -3.892000 -10.773100 3.206882 2.587125 -1.380470 11.969714 2.602605 -41.595744 -14.197890 -19.050818 72.162260 3.508476 -15.869661 -10.189250 -0.171600 2.668400 -7.356900 -0.731893 0.204225 23.467203 2.154681 0.523474 0.439946 2.475009 0.421535 -9.567688 3.263726 1.253241 -17.851539 2.540740 0.462712 8.407139 -2.439800 0.348200 7.922700 3.377703 -1.267916 0.188866 -83.934276 -1.845932 21.535182 29.106004 -39.823455 -10.146738 0.403092 0.182495 -9.647011 23.099723 -13.090749 -5.471600 -7.125000 0.000000 0.000000 -3.211100 15.672800 2.227800 -2.567885 1.548106 0.205378 83.501012 -5.205737 28.274467 -41.777859 48.826353 -18.726146 0.301377 -0.606645 -7.699702 -17.913058 -3.855616 1.039500 7.125000 0.000000 0.000000 6.902200 -33.264600 1.997700 
1.628922 16.699372 -9.686215 -2.579553 2.692002 2.868828 -4.839099 -2.732333 -0.284622 -15.181316 -0.535951 -27.940172 7.224413 16.418879 51.950986 -0.650013 5.655864 -11.686604 0.388100 -4.000300 -11.077400 3.193570 2.599901 -1.437602 11.490062 2.860391 -42.374482 -13.597072 -18.859874 70.304418 3.557787 -15.981893 -10.052744 -0.167100 2.633800 -7.260800 -0.706630 0.015300 23.523956 2.149720 0.283333 0.418709 2.524556 0.309229 -9.601694 3.237770 1.249871 -17.809726 2.543156 0.455537 8.283298 -2.435900 0.336300 7.871000 3.374189 -1.270166 0.185748 -83.858110 -2.632324 22.209710 29.349671 -40.049784 -10.300085 0.402857 0.178797 -9.439468 23.213281 -13.197126 -5.544700 -7.125000 0.000000 0.000000 -3.137500 15.548200 2.185000 -2.566650 1.536540 0.204994 83.566057 -5.234956 27.934048 -42.169352 49.044345 -19.017241 0.306442 -0.605999 -7.948492 -17.963111 -4.068095 1.111900 7.125000 0.000000 0.000000 6.880500 -33.486600 1.954200 
1.620540 16.711347 -9.557182 -2.497487 3.302101 3.097756 -4.866020 -2.721285 -0.258008 -15.258690 -0.910824 -27.581076 7.185859 16.395729 51.839831 -0.723859 5.935288 -11.786517 0.408100 -4.101200 -11.361600 3.181621 2.611656 -1.492688 11.014552 3.123273 -43.115802 -13.000244 -18.650850 68.433948 3.631927 -16.167661 -9.802503 -0.161000 2.585500 -7.126800 -0.664784 -0.168386 23.593287 2.158610 0.056226 0.401859 2.580582 0.203628 -9.639722 3.205216 1.250408 -17.744070 2.532220 0.449815 8.082432 -2.435400 0.318900 7.787900 3.371316 -1.277809 0.183538 -83.809319 -3.457772 22.849420 29.600360 -40.281041 -10.458731 0.402317 0.174565 -9.193524 23.312703 -13.310190 -5.617100 -7.125000 0.000000 0.000000 -3.074000 15.418100 2.149300 -2.563970 1.519899 0.204291 83.604448 -5.288226 27.562778 -42.586487 49.271495 -19.327708 0.311162 -0.605088 -8.181655 -17.978006 -4.259748 1.175500 7.125000 0.000000 0.000000 6.885700 -33.686300 1.922100 
1.612756 16.722025 -9.428249 -2.415817 3.895232 3.312565 -4.896287 -2.707947 -0.234578 -15.343850 -1.407893 -27.176934 7.159181 16.381400 51.769237 -0.844536 6.381192 -11.907195 0.428700 -4.201800 -11.645000 3.170928 2.622395 -1.546452 10.521277 3.408250 -43.816415 -12.416105 -18.426722 66.572689 3.729545 -16.421446 -9.406450 -0.154400 2.532000 -6.978300 -0.631951 -0.333574 23.673706 2.171784 -0.148004 0.386199 2.640752 0.110540 -9.685505 3.224023 1.272061 -17.653396 2.479861 0.456122 7.831221 -2.456700 0.303200 7.683600 3.369257 -1.291204 0.182535 -83.779563 -4.301552 23.461701 29.859612 -40.518473 -10.623656 0.401563 0.171017 -8.971459 23.411590 -13.397083 -5.679300 -7.125000 0.000000 0.000000 -3.009500 15.315400 2.110700 -2.559926 1.498364 0.203498 83.628618 -5.364028 27.169582 -42.992128 49.487935 -19.630960 0.314981 -0.604489 -8.397802 -18.004850 -4.387103 1.219000 7.125000 0.000000 0.000000 6.875500 -33.819100 1.897000 
1.604872 16.730807 -9.299716 -2.334380 4.456935 3.521143 -4.927906 -2.692394 -0.215452 -15.436723 -2.013722 -26.749456 7.149620 16.378743 51.755173 -1.000633 6.954520 -12.049859 0.450000 -4.303900 -11.933300 3.161048 2.632681 -1.599633 10.012270 3.731338 -44.494981 -11.852539 -18.190755 64.742525 3.850117 -16.746633 -8.868443 -0.146800 2.468700 -6.802800 -0.618712 -0.475943 23.752336 2.187449 -0.326354 0.380220 2.708678 0.029988 -9.719788 3.246871 1.288416 -17.573306 2.443231 0.452475 7.563903 -2.474000 0.283500 7.575100 3.367081 -1.304243 0.181271 -83.774202 -5.196284 24.028134 30.113313 -40.749421 -10.785751 0.400080 0.168097 -8.790762 23.464846 -13.457507 -5.718700 -7.125000 0.000000 0.000000 -2.974800 15.245800 2.090700 -2.555893 1.476202 0.202703 83.640481 -5.430140 26.764467 -43.357112 49.679180 -19.905341 0.317464 -0.604490 -8.621076 -18.058890 -4.408067 1.229200 7.125000 0.000000 0.000000 6.833500 -33.841300 1.881600 
1.596789 16.737393 -9.171482 -2.263196 4.953638 3.721367 -4.959030 -2.674588 -0.199705 -15.527553 -2.687082 -26.312754 7.160002 16.389273 51.804025 -1.190426 7.647682 -12.207767 0.470900 -4.401000 -12.207700 3.152300 2.642840 -1.652332 9.500593 4.117776 -45.152640 -11.313278 -17.946569 62.959576 3.981897 -17.112849 -8.222543 -0.138200 2.395900 -6.601100 -0.633103 -0.584099 23.835206 2.208421 -0.465537 0.378159 2.789231 -0.030928 -9.754466 3.273164 1.296317 -17.491030 2.426702 0.436837 7.308381 -2.485700 0.261200 7.470200 3.364438 -1.315531 0.179337 -83.787009 -6.128057 24.566915 30.363041 -40.975393 -10.946036 0.398463 0.166082 -8.692955 23.505968 -13.501283 -5.748100 -7.125000 0.000000 0.000000 -2.947500 15.195200 2.074700 -2.551843 1.455117 0.201988 83.630452 -5.498280 26.361080 -43.681208 49.845705 -20.150114 0.319224 -0.604463 -8.850944 -18.103126 -4.384005 1.224000 7.125000 0.000000 0.000000 6.795600 -33.816500 1.875100 
1.588805 16.741584 -9.043048 -2.196330 5.363014 3.917103 -4.988134 -2.655051 -0.186808 -15.626252 -3.394158 -25.882279 7.192894 16.414280 51.923773 -1.403314 8.424336 -12.382106 0.491400 -4.494500 -12.472100 3.144216 2.653432 -1.704830 8.982066 4.568718 -45.799151 -10.800180 -17.697249 61.235295 4.112850 -17.486917 -7.512573 -0.131100 2.334000 -6.429700 -0.680637 -0.653926 23.909742 2.229489 -0.562123 0.383874 2.877499 -0.071756 -9.777504 3.265315 1.280367 -17.420703 2.469107 0.399249 7.083020 -2.473000 0.233800 7.376800 3.360520 -1.321579 0.175971 -83.822192 -7.089379 25.065488 30.614269 -41.201298 -11.108136 0.396521 0.165001 -8.664760 23.525837 -13.520511 -5.761800 -7.125000 0.000000 0.000000 -2.933500 15.172900 2.066200 -2.548657 1.437944 0.201460 83.602520 -5.557344 25.967888 -43.961213 49.987409 -20.363523 0.320907 -0.604254 -9.089049 -18.160608 -4.367441 1.222100 7.125000 0.000000 0.000000 6.747800 -33.799900 1.864500 
1.580523 16.742682 -8.914315 -2.127625 5.677641 4.107176 -5.014046 -2.634431 -0.176020 -15.738408 -4.100212 -25.469189 7.248370 16.453746 52.113696 -1.631218 9.258620 -12.575793 0.513000 -4.590900 -12.745400 3.136419 2.664973 -1.757198 8.452436 5.085845 -46.438985 -10.313478 -17.445779 59.579337 4.227468 -17.821740 -6.797074 -0.127100 2.297900 -6.329600 -0.772171 -0.685145 23.965457 2.245623 -0.619464 0.406135 2.972526 -0.094394 -9.770269 3.229766 1.240128 -17.413320 2.571637 0.338686 6.903342 -2.437400 0.201800 7.309500 3.355238 -1.320480 0.170957 -83.863001 -8.094198 25.522070 30.866617 -41.426254 -11.271869 0.394867 0.164125 -8.707097 23.550148 -13.558502 -5.784200 -7.125000 0.000000 0.000000 -2.917800 15.130200 2.057800 -2.546507 1.425795 0.201084 83.559326 -5.582583 25.594184 -44.187525 50.100359 -20.537722 0.322600 -0.603715 -9.333646 -18.218705 -4.370594 1.226900 7.125000 0.000000 0.000000 6.701500 -33.804300 1.850800 
1.571940 16.740387 -8.785981 -2.078375 5.879978 4.303487 -5.034512 -2.614652 -0.168249 -15.839576 -4.766226 -25.109079 7.327684 16.507077 52.375486 -1.867118 10.123471 -12.775577 0.537200 -4.696300 -13.044500 3.128209 2.677776 -1.808908 7.936278 5.682025 -47.097849 -9.850863 -17.194004 57.994493 4.315236 -18.082241 -6.122784 -0.125400 2.282900 -6.288100 -0.890512 -0.672180 24.011465 2.261522 -0.625596 0.426467 3.067260 -0.092147 -9.764865 3.213520 1.199335 -17.412440 2.678929 0.274190 6.745287 -2.403700 0.170700 7.250900 3.349499 -1.317958 0.165563 -83.909820 -9.100556 25.949377 31.133813 -41.661587 -11.445949 0.393361 0.163743 -8.792781 23.583756 -13.593375 -5.807900 -7.125000 0.000000 0.000000 -2.895800 15.089600 2.044700 -2.544191 1.414959 0.200724 83.496206 -5.605819 25.246220 -44.367783 50.188676 -20.678281 0.324594 -0.602615 -9.577905 -18.268011 -4.424357 1.248100 7.125000 0.000000 0.000000 6.667100 -33.861800 1.831900 
1.563458 16.734798 -8.657647 -2.029635 5.974465 4.501341 -5.049436 -2.596437 -0.161937 -15.951116 -5.363088 -24.801283 7.428978 16.573199 52.703032 -2.102725 10.988863 -12.972148 0.565000 -4.814000 -13.378900 3.118980 2.692041 -1.859781 7.414134 6.332520 -47.770394 -9.411062 -16.943358 56.480640 4.368591 -18.239857 -5.494118 -0.127400 2.301200 -6.338900 -1.043859 -0.621877 24.038783 2.266495 -0.593404 0.454353 3.154581 -0.071421 -9.743260 3.203427 1.160061 -17.441278 2.808847 0.210230 6.585453 -2.363300 0.141700 7.197200 3.343238 -1.313613 0.160009 -83.939121 -10.113484 26.341125 31.409192 -41.901300 -11.626641 0.392723 0.163267 -8.899175 23.668442 -13.651134 -5.855200 -7.125000 0.000000 0.000000 -2.840800 15.018900 2.010100 -2.542143 1.405142 0.200404 83.418745 -5.606503 24.944752 -44.510274 50.257736 -20.791855 0.327628 -0.600937 -9.838278 -18.359362 -4.578214 1.306200 7.125000 0.000000 0.000000 6.607700 -34.025700 1.788900 
